HIERARCHY
ROOT ui
{
	 OFFSET 0 0 0
	 CHANNELS 3 XPosition YPosition Z Position
	 EndSite
	 {
	 OFFSET 0 -1 0
	 }
}
ROOT li
{
	 OFFSET 0 0 0
	 CHANNELS 3 XPosition YPosition Z Position
	 EndSite
	 {
	 OFFSET 0 -1 0
	 }
}
ROOT ul
{
	 OFFSET 0 0 0
	 CHANNELS 3 XPosition YPosition Z Position
	 EndSite
	 {
	 OFFSET 0 -1 0
	 }
}
ROOT ll
{
	 OFFSET 0 0 0
	 CHANNELS 3 XPosition YPosition Z Position
	 EndSite
	 {
	 OFFSET 0 -1 0
	 }
}
ROOT tt
{
	 OFFSET 0 0 0
	 CHANNELS 3 XPosition YPosition Z Position
	 EndSite
	 {
	 OFFSET 0 -1 0
	 }
}
ROOT tb
{
	 OFFSET 0 0 0
	 CHANNELS 3 XPosition YPosition Z Position
	 EndSite
	 {
	 OFFSET 0 -1 0
	 }
}
ROOT td
{
	 OFFSET 0 0 0
	 CHANNELS 3 XPosition YPosition Z Position
	 EndSite
	 {
	 OFFSET 0 -1 0
	 }
}
ROOT v
{
	 OFFSET 0 0 0
	 CHANNELS 3 XPosition YPosition Z Position
	 EndSite
	 {
	 OFFSET 0 -1 0
	 }
}
ROOT bn
{
	 OFFSET 0 0 0
	 CHANNELS 3 XPosition YPosition Z Position
	 EndSite
	 {
	 OFFSET 0 -1 0
	 }
}
MOTION
Frames: 19
Frame Time: 0.002
0.0036711630821228028	0.0016430879831314086	0		0.5282166748046875	-2.655306396484375	0		-0.9569547729492187	0.09339191436767579	0		-0.74944921875	-2.502355712890625	0		1.3912135009765625	-0.7701905517578125	0		3.06481982421875	-0.2585380859375	0		4.512525390625	-0.105233154296875	0		5.603392578125	0.18293545532226563	0		-0.11379656982421875	5.8953583984375	0		
-0.006436070919036865	0.007315621852874756	0		0.5213386840820312	-2.642660888671875	0		-1.0280904541015625	0.09801966094970703	0		-0.7793961181640625	-2.493389404296875	0		1.3971376953125	-0.76471923828125	0		3.050263671875	-0.21965547180175782	0		4.53764697265625	-0.0859386978149414	0		5.6121767578125	0.1825413055419922	0		-0.11524240112304687	5.89587939453125	0		
0.010391945838928223	0.00757581090927124	0		0.5342986450195313	-2.641312744140625	0		-0.9691905517578125	0.1025504379272461	0		-0.7574601440429688	-2.493244384765625	0		1.39088818359375	-0.7710223388671875	0		3.0536796875	-0.24504722595214845	0		4.5302705078125	-0.09808834075927735	0		5.5978544921875	0.1745518798828125	0		-0.11568418884277344	5.895412109375	0		
-0.01577520179748535	0.0075692000389099125	0		0.5181450805664063	-2.647458984375	0		-0.9693651123046875	0.10207967376708985	0		-0.7595567626953125	-2.49567333984375	0		1.38768603515625	-0.7753436279296875	0		3.051731201171875	-0.23231639099121093	0		4.53010400390625	-0.09832559967041016	0		5.6035458984375	0.16626348876953126	0		-0.1302816925048828	5.88420654296875	0		
0.00786683177947998	-0.005212410926818848	0		0.542008056640625	-2.6532197265625	0		-0.9695292358398437	0.10164698028564453	0		-0.750779052734375	-2.5062421875	0		1.3875574951171874	-0.775680908203125	0		3.047500244140625	-0.23752085876464843	0		4.5299482421875	-0.0985357437133789	0		5.597509765625	0.17419300842285157	0		-0.11650328826904296	5.8945791015625	0		
-0.019137948989868165	0.0038684229850769044	0		0.5190698852539063	-2.646183349609375	0		-1.032840576171875	0.09227584838867188	0		-0.7816893310546875	-2.497125	0		1.390496826171875	-0.7720328369140625	0		3.0685625	-0.2251027069091797	0		4.53289453125	-0.09276983642578125	0		5.60247802734375	0.18196641540527345	0		-0.25021726989746096	5.8743740234375	0		
0.013802934646606445	0.009019700050354004	0		0.5480048828125	-2.6469482421875	0		-0.9598756713867187	0.09874666595458985	0		-0.7458087768554688	-2.501047119140625	0		1.393419677734375	-0.769348876953125	0		3.056162109375	-0.24111688232421874	0		4.53274609375	-0.0929298095703125	0		5.6023203125	0.1818429412841797	0		-0.11723151397705078	5.8939013671875	0		
-0.011474422454833984	0.0011506639719009398	0		0.51790625	-2.64872119140625	0		-1.0449869384765624	0.10181307220458985	0		-0.74791552734375	-2.503310546875	0		1.3871798095703125	-0.7764818115234375	0		3.08212744140625	-0.23471624755859374	0		4.53259765625	-0.09306417083740234	0		5.60703369140625	0.1736618347167969	0		-0.11756352996826172	5.89362451171875	0		
0.0063858599662780765	0.0016289390325546266	0		0.5339197998046875	-2.643197021484375	0		-0.97015283203125	0.10034646606445312	0		-0.7619342041015625	-2.49933837890625	0		1.383999755859375	-0.779626953125	0		3.05100048828125	-0.23336515808105468	0		4.53244677734375	-0.09317174530029297	0		5.60274755859375	0.1656490783691406	0		-0.11787850952148438	5.89338916015625	0		
-0.018880456924438477	-0.0051596899032592776	0		0.5157012329101562	-2.6510849609375	0		-1.045302734375	0.10133592987060547	0		-0.7511600952148437	-2.5077236328125	0		1.38386181640625	-0.7797842407226563	0		3.062751220703125	-0.23967356872558593	0		4.5322919921875	-0.09325200653076172	0		5.60671435546875	0.17352972412109374	0		-0.11817976379394532	5.8931953125	0		
0.01405007839202881	1.586890071630478E-4	0		0.5534320068359375	-2.6618330078125	0		-1.029564697265625	0.09490617370605468	0		-0.80924365234375	-2.505961181640625	0		1.395715576171875	-0.780097900390625	0		3.066337646484375	-0.2558203887939453	0		4.51500634765625	-0.10103118896484375	0		5.601677734375	0.18157939147949217	0		-0.11748546600341797	5.892025390625	0		
-0.012984248161315918	0.008478425979614257	0		0.524656982421875	-2.64047265625	0		-0.9547421264648438	0.09357330322265625	0		-0.7442579956054688	-2.500130615234375	0		1.39272509765625	-0.7701364135742188	0		3.085590576171875	-0.2301814880371094	0		4.53196826171875	-0.09333028411865234	0		5.61050732421875	0.18143019104003907	0		-0.10360546875	5.90168603515625	0		
0.017761730194091798	0.0029093050956726075	0		0.5433359985351562	-2.652840087890625	0		-0.9708154907226563	0.09973930358886719	0		-0.7484502563476563	-2.50415185546875	0		1.3864566650390624	-0.7770901489257812	0		3.03028759765625	-0.2383231201171875	0		4.52692822265625	-0.08525033569335938	0		5.60620703125	0.17351393127441406	0		-0.13318870544433595	5.8820771484375	0		
-0.012456244468688964	3.5263198614120483E-4	0		0.543198486328125	-2.65286962890625	0		-0.959152099609375	0.08949858093261719	0		-0.7516534423828125	-2.508150634765625	0		1.383245849609375	-0.780059814453125	0		3.046114990234375	-0.23857440185546874	0		4.52853173828125	-0.09925556945800781	0		5.6019033203125	0.16561859130859374	0		-0.11926881408691406	5.8928134765625	0		
0.0013320950269699097	-0.0018737629652023316	0		0.5410171508789062	-2.65483447265625	0		-0.9593309326171875	0.08948548126220703	0		-0.7518045654296875	-2.508161376953125	0		1.3830762939453125	-0.7800478515625	0		3.05181103515625	-0.2466395721435547	0		4.52835498046875	-0.09921006774902344	0		5.60585107421875	0.17361064147949218	0		-0.13368360900878906	5.8820341796875	0		
-0.012816040992736817	3.7792399525642394E-4	0		0.526793212890625	-2.658577880859375	0		-0.9595134887695312	0.08950662994384766	0		-0.7400648803710937	-2.51432958984375	0		1.3859478759765624	-0.777057373046875	0		3.06696435546875	-0.22583039855957032	0		4.53126904296875	-0.09319624328613281	0		5.6007958984375	0.18176007080078124	0		-0.2530702819824219	5.87296337890625	0		
0.017043277740478514	0.00295537805557251	0		0.5198290405273438	-2.645408447265625	0		-1.030625732421875	0.09469200134277343	0		-0.7470457153320312	-2.502166015625	0		1.3918775634765626	-0.7700908813476562	0		3.060414306640625	-0.248660888671875	0		4.5310849609375	-0.0931187744140625	0		5.609609375	0.18169874572753905	0		-0.11994754791259765	5.89289306640625	0		
-0.014059054374694823	0.008531818389892578	0		0.5425341796875	-2.65269140625	0		-0.9598849487304687	0.08963916015625	0		-0.7523213500976562	-2.5080048828125	0		1.385582275390625	-0.776908935546875	0		3.08044970703125	-0.2348928680419922	0		4.53089892578125	-0.09302645874023438	0		5.6052958984375	0.17385832214355468	0		-0.1201467514038086	5.892974609375	0		
0.005513076782226563	-0.006681591987609863	0		0.5143699340820312	-2.651140380859375	0		-0.9719097900390625	0.09993254852294922	0		-0.7525052490234375	-2.507901611328125	0		1.3823494873046875	-0.779755615234375	0		3.049283935546875	-0.23329180908203126	0		4.52584130859375	-0.08484010314941406	0		5.600982421875	0.1660316162109375	0		-0.12033740997314453	5.89307861328125	0		
